<svg width="53" height="50" viewBox="0 0 53 50" fill="none" xmlns="http://www.w3.org/2000/svg">
    <path d="M21.8884 0.0809364C19.5112 0.265694 16.8876 0.795334 14.6951 1.53436C4.1147 5.11866 -3.41109 14.3689 -4.85219 25.5898C-5.04927 27.1048 -5.04927 30.9847 -4.85219 32.512C-4.15012 37.9685 -2.04388 43.0063 1.29407 47.1695C9.25096 57.0848 22.6397 60.6814 34.5258 56.0994C43.8622 52.4905 50.7475 44.1271 52.5581 34.1995C53.1493 30.9231 53.1493 27.2033 52.5458 23.8407C52.2748 22.3257 52.1393 22.0301 51.5974 21.8084C51.2894 21.6729 51.0677 21.6976 50.2055 21.9316C49.5527 22.104 49.0724 22.3134 48.8876 22.4982C48.5427 22.8431 48.555 23.0771 48.9369 25.3681C49.2202 27.1171 49.2325 30.9478 48.9369 32.7461C47.6682 40.7029 43.0246 47.3296 36.0162 51.2218C32.0377 53.4266 26.8029 54.5598 22.2333 54.2026C15.9392 53.7099 10.5443 51.2341 6.1224 46.7999C-1.57583 39.114 -3.43572 27.3511 1.50346 17.6698C2.43957 15.8223 3.10469 14.7876 4.37336 13.2234C8.30254 8.33344 13.8699 5.13097 20.2256 4.09633C22.0978 3.80072 25.8668 3.80072 27.739 4.09633C31.311 4.68756 34.3903 5.83306 37.3957 7.69295C38.4303 8.34576 40.8075 10.181 41.2756 10.6983C41.5096 10.957 41.5096 10.9693 41.2633 11.2403C40.8445 11.696 40.7213 12.0163 40.8445 12.3488C40.9184 12.5213 41.0662 12.6937 41.1894 12.7307C41.7436 12.8908 46.1532 13.7899 46.4242 13.7899C46.5966 13.7899 46.8306 13.6791 46.9538 13.5436C47.1755 13.2973 47.1632 13.2234 46.6089 10.5628C46.2887 9.07247 45.9684 7.76685 45.8945 7.68063C45.6482 7.38502 45.057 7.47124 44.6628 7.8777L44.2933 8.24722L43.1601 7.24953C37.408 2.16254 29.4881 -0.510284 21.8884 0.0809364Z" fill="#FFBC87"/>
    <path d="M20.6199 7.20033C17.2573 7.7546 13.9317 9.10948 11.1726 11.0556C9.66992 12.1026 7.03405 14.7384 5.96246 16.2534C4.28732 18.6183 2.87085 21.9317 2.30426 24.8262C1.95938 26.5506 1.83621 29.79 2.05792 31.6253C3.15415 41.1095 10.138 48.6845 19.6591 50.7045C21.0756 51.0125 21.4451 51.0371 23.9825 51.0371C26.5198 51.0371 26.8893 51.0125 28.2935 50.7045C32.5552 49.7931 36.0902 47.9701 39.1572 45.0879C42.8647 41.5898 45.3281 36.6999 45.907 31.6499C46.1287 29.827 46.0056 26.5383 45.6607 24.8262C45.0941 21.9193 43.6776 18.6183 42.0025 16.2534C40.9309 14.7507 38.295 12.1149 36.7923 11.0433C34.4274 9.38046 31.3112 8.02557 28.3551 7.38508C26.7415 7.02788 22.3073 6.92934 20.6199 7.20033ZM27.9855 9.23265C36.6568 11.0925 43.0248 18.0271 44.0718 26.7723C44.2688 28.3858 44.1457 31.342 43.8254 32.9309C43.2835 35.5791 42.2488 38.0425 40.7215 40.3458C39.5021 42.1811 37.1126 44.5706 35.2773 45.8023C29.636 49.5467 22.7631 50.2858 16.5306 47.8346C13.9193 46.8 11.924 45.4574 9.74383 43.2896C7.2804 40.8262 5.76538 38.3874 4.73074 35.1603C4.13952 33.3373 3.90549 31.9209 3.81927 29.8516C3.68378 26.3781 4.31196 23.3112 5.81465 20.2442C8.74614 14.2211 14.2765 10.1441 20.9894 9.0479C22.6029 8.78924 26.3597 8.88778 27.9855 9.23265Z" fill="#FFBC87"/>
    <path d="M23.5141 11.2896C23.4279 11.3265 23.2801 11.5113 23.1816 11.6961C22.9598 12.1272 22.9229 14.4797 23.1323 14.9478C23.4649 15.6745 24.5734 15.6252 24.8321 14.8739C25.0415 14.295 25.0045 12.1272 24.7828 11.7084C24.5488 11.2403 24.0438 11.0802 23.5141 11.2896Z" fill="#FFBC87"/>
    <path d="M18.0578 14.1596C17.9469 14.2211 17.7868 14.4429 17.7129 14.6399C17.5774 14.9602 17.7129 15.379 19.4865 19.9609C20.5458 22.6954 21.6051 25.4421 21.8514 26.0703L22.2949 27.1911L22.0362 27.5606C21.6174 28.1395 21.4573 28.9278 21.6174 29.5683C21.6913 29.8639 21.7406 30.1103 21.7283 30.1226C21.716 30.1349 19.4373 31.6376 16.6782 33.4606L11.6528 36.7862L11.8869 37.0695L12.1209 37.3528L17.0724 34.0764C19.7945 32.2658 22.0732 30.7877 22.1347 30.7877C22.1963 30.7877 22.4427 30.9232 22.689 31.0833C23.5635 31.6869 24.7213 31.6007 25.5343 30.8863C26.0393 30.4429 26.1871 30.1842 26.3842 29.4452L26.5196 28.9032L31.1263 26.8955C33.6636 25.7993 35.8068 24.8016 35.893 24.6784C36.1024 24.3828 36.0901 23.8778 35.8684 23.5576C35.4742 22.991 35.3141 23.0402 30.3626 25.1834C25.8176 27.1542 25.6574 27.2158 25.3618 27.0187C25.2017 26.9078 24.8322 26.76 24.5489 26.6738L24.0439 26.526L22.2333 21.8578C21.2356 19.2835 20.1886 16.5737 19.9053 15.8347C19.622 15.0957 19.2895 14.3936 19.154 14.2581C18.92 14.0241 18.378 13.9748 18.0578 14.1596Z" fill="#FFBC87"/>
    <path d="M6.66427 28.2135C6.39329 28.3489 6.12231 28.8047 6.12231 29.1126C6.12231 29.1988 6.23317 29.4205 6.38097 29.6053C6.62732 29.9255 6.65195 29.9255 8.27782 29.9255C9.81746 29.9255 9.95295 29.9132 10.187 29.6546C10.4949 29.322 10.5072 28.8047 10.1993 28.4352C9.97759 28.1519 9.87905 28.1395 8.43794 28.1149C7.55111 28.0903 6.81208 28.1395 6.66427 28.2135Z" fill="#FFBC87"/>
    <path d="M38.0609 28.2011C37.5066 28.4228 37.3588 29.1988 37.7776 29.6546C38.0116 29.9132 38.1471 29.9255 39.6867 29.9255C41.3126 29.9255 41.3372 29.9255 41.5836 29.6053C41.7314 29.4205 41.8422 29.1988 41.8422 29.1126C41.8422 28.7924 41.5589 28.3489 41.2633 28.2135C40.9184 28.0533 38.455 28.041 38.0609 28.2011Z" fill="#FFBC87"/>
    <path d="M23.354 42.8462C23.0707 43.0679 23.0583 43.1541 23.0583 44.6937C23.0583 46.1841 23.083 46.3196 23.3293 46.5659C23.4895 46.7384 23.7481 46.8369 23.9821 46.8369C24.2162 46.8369 24.4748 46.7384 24.6349 46.5659C24.8813 46.3196 24.9059 46.1841 24.9059 44.6937C24.9059 43.1541 24.8936 43.0679 24.6103 42.8462C24.4502 42.723 24.1669 42.6121 23.9821 42.6121C23.7974 42.6121 23.5141 42.723 23.354 42.8462Z" fill="#FFBC87"/>
</svg>
