<svg width="25" height="25" viewBox="0 0 25 25" fill="none" xmlns="http://www.w3.org/2000/svg">
    <g clip-path="url(#clip0_390_11051)">
        <path d="M10.9672 0.598436C10.7516 0.734375 10.625 1.02969 10.625 1.38125V1.66719L7.77969 1.68125C4.99532 1.69531 4.925 1.69531 4.71407 1.79375C4.40469 1.93906 4.17969 2.15937 4.02969 2.45937L3.89844 2.72656L3.88438 13.0156C3.875 22.0531 3.88438 23.3328 3.94532 23.5437C4.03438 23.8578 4.37657 24.2422 4.69532 24.3875C4.925 24.4953 4.95313 24.5 6.50938 24.5H8.08907L8.18282 24.3781C8.30469 24.2188 8.30938 24.0781 8.1875 23.9234L8.09375 23.8016L6.59375 23.7875C5.16407 23.7734 5.09375 23.7687 4.96719 23.675C4.89688 23.6234 4.78907 23.5062 4.73282 23.4219L4.625 23.2672V13.1141C4.625 3.31719 4.62969 2.95156 4.71407 2.79688C4.76094 2.70781 4.88282 2.58594 4.98125 2.52969L5.16407 2.42188H7.89688H10.625V2.86719V3.30781L8.36563 3.32187C5.85313 3.33594 5.92344 3.32656 5.69375 3.65L5.58594 3.80469L5.57188 13.0672L5.5625 22.3297L5.67032 22.4891C5.72657 22.5734 5.84844 22.6953 5.93282 22.7516L6.09219 22.8594H12.5H18.9078L19.0672 22.7516C19.1516 22.6953 19.2734 22.5734 19.3297 22.4891L19.4375 22.3297V14.8906V7.45156L19.3297 7.35312C19.1938 7.22656 18.9688 7.22187 18.8234 7.33906L18.7109 7.42812L18.6969 14.7687L18.6875 22.1094H12.5H6.3125V13.0859V4.0625H8.46407H10.6109L10.6344 4.43281C10.6531 4.75156 10.6766 4.83125 10.7891 4.97656C11.0094 5.26719 11.0797 5.28125 12.5 5.28125C13.9203 5.28125 13.9906 5.26719 14.2109 4.97656C14.3234 4.83125 14.3469 4.75156 14.3656 4.43281L14.3891 4.0625H16.5359H18.6828L18.6969 5.12187C18.7109 6.17188 18.7109 6.18125 18.8234 6.27031C18.9781 6.39687 19.2078 6.3875 19.3391 6.24687C19.4422 6.13906 19.4422 6.12031 19.4281 4.97187C19.4141 3.8375 19.4094 3.8 19.3063 3.65C19.0766 3.32656 19.1469 3.33594 16.6391 3.32187L14.375 3.30781V2.8625V2.42188L17.1547 2.43125L19.9297 2.44531L20.075 2.54844C20.3984 2.78281 20.375 1.88281 20.375 13.1234V23.2672L20.2719 23.4219C20.2109 23.5062 20.1031 23.6234 20.0328 23.675C19.9016 23.7734 19.8875 23.7734 14.6094 23.7969C9.3875 23.8203 9.31719 23.8203 9.24688 23.9141C9.14375 24.05 9.15313 24.275 9.26563 24.3969L9.36407 24.5H14.7172H20.0703L20.3047 24.3875C20.6234 24.2422 20.9656 23.8578 21.0547 23.5437C21.1156 23.3328 21.125 22.0531 21.1156 13.0156L21.1016 2.72656L21.0031 2.51094C20.8578 2.20156 20.6375 1.97656 20.3375 1.82656L20.0703 1.69531L17.225 1.68125L14.375 1.66719V1.38125C14.375 1.025 14.2438 0.729687 14.0281 0.59375C13.8781 0.504686 13.7984 0.5 12.4953 0.5C11.1875 0.5 11.1078 0.504686 10.9672 0.598436ZM13.625 2.86719V4.53125H12.5H11.375V2.86719V1.20312H12.5H13.625V2.86719Z" fill="#777E99"/>
        <path d="M7.58751 6.70168C7.36251 6.94074 7.50782 7.28293 7.84532 7.32981L8.0422 7.35324L8.05626 8.31418C8.07032 9.25637 8.07032 9.27512 8.18282 9.36418C8.32345 9.48137 8.52032 9.47668 8.67501 9.35481L8.79688 9.26106V8.30012V7.34387H8.93751C9.24688 7.34387 9.44845 7.12356 9.37813 6.85637C9.32188 6.62199 9.21876 6.59387 8.42188 6.59387C7.71407 6.59387 7.68595 6.59856 7.58751 6.70168Z" fill="#777E99"/>
        <path d="M10.7234 6.67344C10.6156 6.76719 9.78125 8.91406 9.78125 9.10625C9.78125 9.26094 9.97813 9.45312 10.1328 9.45312C10.3297 9.45312 10.4375 9.36875 10.5312 9.14375L10.6203 8.9375H10.9953H11.3656L11.4359 9.12031C11.4781 9.22344 11.5578 9.33594 11.6188 9.37812C11.8391 9.53281 12.1297 9.425 12.1953 9.1625C12.2328 9.02187 11.4172 6.85625 11.2719 6.70156C11.15 6.57031 10.8688 6.55625 10.7234 6.67344ZM11.0234 8.17812C10.9203 8.20156 10.8969 8.17344 10.9344 8.07031C10.9672 7.99062 10.9719 7.99062 11.0328 8.075C11.0891 8.15469 11.0891 8.16406 11.0234 8.17812Z" fill="#777E99"/>
        <path d="M13.4938 6.65937C13.1234 6.79062 12.8797 7.20312 12.9453 7.58749C12.9969 7.88281 13.2172 8.08906 13.6906 8.27656C14.1641 8.46874 14.2531 8.53906 14.1172 8.64218C13.9859 8.74062 13.7047 8.68906 13.4984 8.53437C13.1703 8.28593 12.8281 8.41249 12.8281 8.78281C12.8281 9.19999 13.7094 9.58437 14.2625 9.40624C14.6609 9.27968 14.9375 8.93749 14.9375 8.56718C14.9375 8.09843 14.6891 7.84062 13.9766 7.57343C13.8313 7.51718 13.7234 7.45156 13.7328 7.42343C13.7609 7.32968 13.9859 7.33437 14.1828 7.43281C14.4266 7.55937 14.6609 7.55937 14.7734 7.43749C14.9 7.29687 14.8859 7.04374 14.75 6.89843C14.5109 6.64531 13.8688 6.51874 13.4938 6.65937Z" fill="#777E99"/>
        <path d="M15.6828 6.68289L15.5703 6.77195V8.02351V9.27507L15.6828 9.36414C15.8234 9.48132 16.0203 9.47664 16.175 9.35476C16.2781 9.27507 16.2969 9.22351 16.2969 9.02195V8.78289L16.6438 9.1157C17.0281 9.4907 17.1641 9.53289 17.3938 9.35476C17.4875 9.28445 17.5156 9.21882 17.5156 9.08757C17.5156 8.9282 17.4734 8.86726 17.0422 8.44539L16.5734 7.97664L17.0047 7.57351C17.3984 7.2032 17.4406 7.15164 17.4406 6.99695C17.4406 6.77195 17.2953 6.62195 17.0797 6.62195C16.9531 6.62195 16.8594 6.67351 16.6203 6.88914L16.3203 7.15632L16.3063 6.9782C16.2781 6.63601 15.9359 6.47664 15.6828 6.68289Z" fill="#777E99"/>
        <path d="M8.38437 10.2546C8.12187 10.3062 7.90625 10.4421 7.68125 10.6952C7.46562 10.939 7.39062 11.164 7.39062 11.5718C7.39062 12.2327 7.87812 12.753 8.55781 12.814C9.10625 12.8655 9.56562 12.6124 9.82344 12.1202C9.96875 11.839 9.97812 11.7968 9.95937 11.4687C9.93594 11.0702 9.83281 10.8265 9.58437 10.5921C9.29375 10.3108 8.79687 10.1702 8.38437 10.2546ZM8.85781 11.0187C9.06875 11.1077 9.17656 11.2437 9.20469 11.4593C9.2375 11.6937 9.12031 11.9046 8.90937 12.0077C8.72187 12.0968 8.59531 12.0968 8.42656 12.0124C8.01875 11.7968 8.05156 11.2108 8.4875 11.0187C8.67031 10.939 8.675 10.939 8.85781 11.0187Z" fill="#777E99"/>
        <path d="M11.0281 10.4891C10.9344 10.5641 10.9062 10.625 10.9062 10.7656C10.9062 10.9062 10.9344 10.9672 11.0281 11.0422C11.15 11.1406 11.1875 11.1406 14.2766 11.1406C17.3609 11.1406 17.4078 11.1406 17.5062 11.0469C17.6609 10.9016 17.6469 10.6156 17.4875 10.4891C17.3656 10.3906 17.3281 10.3906 14.2578 10.3906C11.1875 10.3906 11.15 10.3906 11.0281 10.4891Z" fill="#777E99"/>
        <path d="M11.1125 11.9563C10.8875 12.0594 10.8266 12.3734 11 12.5469C11.0891 12.6359 11.1547 12.6406 13.4047 12.6406C15.6781 12.6406 15.7203 12.6406 15.8047 12.5469C15.9266 12.4109 15.9219 12.1484 15.7906 12.0172L15.6828 11.9141L13.4703 11.9C11.6516 11.8906 11.2297 11.9 11.1125 11.9563Z" fill="#777E99"/>
        <path d="M8.14062 14.328C7.65781 14.553 7.39062 14.9796 7.39062 15.5233C7.39531 16.2499 7.85469 16.7515 8.56719 16.803C8.98438 16.8311 9.3125 16.7233 9.56563 16.4655C9.82344 16.2124 9.93594 15.964 9.95938 15.6077C9.99688 15.0874 9.76719 14.6468 9.32656 14.389C9.02656 14.2155 8.45 14.1827 8.14062 14.328ZM8.9375 15.0546C9.0125 15.0968 9.10625 15.1905 9.14844 15.2655C9.34531 15.6499 9.08281 16.0624 8.62813 16.0624C8.49688 16.0624 8.42188 16.0249 8.3 15.903C8.16406 15.7671 8.14062 15.7108 8.14062 15.5233C8.14062 15.3358 8.16406 15.2796 8.3 15.1436C8.48281 14.9608 8.70312 14.9327 8.9375 15.0546Z" fill="#777E99"/>
        <path d="M11.1078 14.4219C10.8875 14.5109 10.8359 14.8531 11.0141 15.0219L11.1219 15.125H14.2719C17.3609 15.125 17.4219 15.125 17.5156 15.0312C17.6469 14.9 17.6422 14.6094 17.5109 14.4875C17.4172 14.4031 17.2859 14.3984 14.3094 14.3891C12.5797 14.3844 11.1641 14.3984 11.1078 14.4219Z" fill="#777E99"/>
        <path d="M11 16.0156C10.8781 16.1375 10.8781 16.3906 10.9953 16.5359L11.0844 16.6484L13.3578 16.6625L15.6313 16.6765L15.7625 16.564C15.9313 16.4187 15.9406 16.1328 15.7813 16.0062C15.6828 15.9265 15.5141 15.9218 13.3859 15.9218C11.1547 15.9218 11.0891 15.9265 11 16.0156Z" fill="#777E99"/>
        <path d="M8.20625 18.2938C7.72344 18.472 7.39062 18.9548 7.39062 19.4751C7.39062 19.9345 7.46563 20.1266 7.76562 20.4266C7.95781 20.6188 8.07969 20.7032 8.25781 20.7501C9.19531 21.0126 10.0344 20.3563 9.95938 19.4188C9.92188 18.9454 9.66406 18.5657 9.24688 18.3501C8.99844 18.2235 8.47344 18.1907 8.20625 18.2938ZM8.9375 19.0438C9.21875 19.2126 9.29375 19.5454 9.11094 19.8173C8.82031 20.2485 8.14062 20.047 8.14062 19.5266C8.14062 19.2876 8.20156 19.1751 8.38906 19.0626C8.57188 18.9501 8.76406 18.9454 8.9375 19.0438Z" fill="#777E99"/>
        <path d="M11 18.5C10.8781 18.6219 10.8734 18.889 10.9953 19.0109C11.0469 19.0625 11.1594 19.1187 11.2438 19.1328C11.3281 19.1469 12.7531 19.1562 14.4031 19.1469C17.2859 19.1328 17.4172 19.1281 17.5109 19.0437C17.6422 18.9219 17.6469 18.6312 17.5156 18.5C17.4219 18.4062 17.3609 18.4062 14.2578 18.4062C11.1547 18.4062 11.0938 18.4062 11 18.5Z" fill="#777E99"/>
        <path d="M11.0281 20.0047C10.9344 20.0797 10.9062 20.1406 10.9062 20.2812C10.9062 20.4219 10.9344 20.4828 11.0281 20.5578C11.15 20.6562 11.1969 20.6562 13.4563 20.6562C15.7109 20.6562 15.7672 20.6562 15.8656 20.5625C15.9219 20.5109 15.9781 20.4172 15.9969 20.3562C16.0297 20.225 15.9125 19.9766 15.8047 19.9344C15.7625 19.9203 14.6984 19.9062 13.4422 19.9062C11.1969 19.9062 11.15 19.9062 11.0281 20.0047Z" fill="#777E99"/>
    </g>
    <defs>
        <clipPath id="clip0_390_11051">
            <rect width="24" height="24" fill="white" transform="translate(0.5 0.5)"/>
        </clipPath>
    </defs>
</svg>
