<svg width="45" height="44" viewBox="0 0 45 44" fill="none" xmlns="http://www.w3.org/2000/svg">
    <path d="M38.9442 0.111676C38.1394 0.373477 37.4898 0.790419 36.7238 1.52734L35.9384 2.29335L39.3127 5.66767L42.687 9.04199L43.4627 8.2372C44.0445 7.63602 44.3354 7.24817 44.5972 6.68578C44.9268 5.99735 44.9559 5.8616 44.985 4.90166C45.0238 4.03869 44.9947 3.76719 44.8105 3.23389C44.3742 1.9055 43.5597 0.984345 42.2894 0.383173C41.601 0.0534973 41.4943 0.0341053 40.4471 0.00501633C39.7102 -0.0143766 39.1963 0.0244083 38.9442 0.111676Z" fill="#3B6DA7"/>
    <path d="M7.62505 3.26288C6.01546 3.72831 4.57071 4.89186 3.82409 6.32692C3.2714 7.39352 3.11626 8.07226 3.12596 9.34248C3.13565 10.7 3.18413 10.8745 3.55259 10.9133C5.32702 11.0878 6.956 12.4259 7.4893 14.1422C7.58627 14.4621 7.67353 14.8985 7.67353 15.1118V15.4899H6.94631H6.21908V15.1506C6.21908 14.5688 5.85062 13.7737 5.34641 13.2598C4.14407 12.0671 2.08845 12.0671 0.886104 13.2598C-0.655612 14.8112 -0.102922 17.6425 1.90422 18.3892C2.43752 18.5928 2.52478 18.5928 13.5689 18.5928C24.1961 18.5928 24.71 18.5831 25.0784 18.4085C25.922 18.0207 26.3874 17.245 26.3874 16.2463C26.3777 15.2572 25.8638 14.4427 25.0106 14.0937C24.5064 13.8804 23.527 13.8998 23.0422 14.1228C22.3247 14.4621 21.7332 15.2863 21.7332 15.9748V16.2657H20.9963H20.2497L20.3078 15.7227C20.4048 14.7433 21.1029 13.6476 21.9659 13.1047C22.4604 12.7944 22.5089 12.6489 22.5089 11.5145C22.5089 9.85638 21.6362 8.36315 20.1818 7.51957C18.8437 6.74386 16.7493 6.76326 15.4306 7.56805C14.9167 7.87833 14.2089 8.56677 13.8889 9.07098C13.6174 9.49762 13.2004 10.5836 13.2004 10.8551C13.2004 10.923 13.4235 11.0878 13.695 11.2042C14.6258 11.6308 15.4306 12.7362 15.4306 13.5701V13.9385H14.7034H13.9761V13.667C13.9761 12.9689 13.2683 12.3871 12.4247 12.3871C11.5812 12.3871 10.8733 12.9689 10.8733 13.667V13.9385H10.1461H9.41887V13.5701C9.41887 12.7071 10.3594 11.4757 11.2515 11.1654L11.7072 11.0005L11.872 10.283C12.066 9.40066 12.4829 8.53768 13.055 7.80076C13.4428 7.30625 14.2089 6.62751 14.6355 6.3851C14.7906 6.29783 14.7809 6.25905 14.6064 5.91967C14.4997 5.72575 14.1022 5.25063 13.724 4.87247C12.9483 4.08707 11.8526 3.45681 10.8636 3.2241C10.02 3.03017 8.37167 3.04956 7.62505 3.26288Z" fill="#3B6DA7"/>
    <path d="M34.2415 3.99993L33.6112 4.63019L36.9855 8.00452L40.3502 11.3691L40.9998 10.7098L41.6592 10.0601L38.3139 6.7149C36.4716 4.8726 34.9493 3.36967 34.9202 3.36967C34.8911 3.36967 34.5808 3.65086 34.2415 3.99993Z" fill="#3B6DA7"/>
    <path d="M30.4599 7.78135C29.3157 8.92551 28.4043 9.87575 28.4236 9.89515C28.4527 9.90484 28.8406 10.1376 29.2963 10.3897C29.752 10.6515 30.4405 11.1072 30.8283 11.4078C31.2259 11.7084 31.604 11.9896 31.6816 12.0477C31.7883 12.1253 32.2246 11.7374 33.6306 10.3315L35.4535 8.50857L34.0475 7.1026C33.2718 6.3269 32.6222 5.69664 32.5931 5.69664C32.564 5.69664 31.604 6.63718 30.4599 7.78135Z" fill="#3B6DA7"/>
    <path d="M34.639 11.3595C33.4852 12.523 32.8743 13.1921 32.9228 13.2794C32.9519 13.3472 33.2137 13.706 33.4949 14.0648C33.9506 14.6368 34.9202 16.1592 35.0463 16.4888C35.0754 16.5567 36.045 15.655 37.2086 14.5011L39.3321 12.3873L37.9261 10.9813C37.1504 10.2056 36.5007 9.57536 36.4716 9.57536C36.4426 9.57536 35.6184 10.3802 34.639 11.3595Z" fill="#3B6DA7"/>
    <path d="M23.8955 10.4188C23.9343 10.6224 23.9634 11.1654 23.9634 11.6211V12.455L24.5355 12.5132C25.7378 12.6198 26.9886 13.5313 27.5316 14.6851C27.7643 15.1894 27.7934 15.3639 27.7934 16.2656C27.7934 17.1674 27.7643 17.3419 27.5316 17.8461C27.2019 18.5443 26.3584 19.3976 25.6796 19.7078C24.9621 20.0375 24.0991 20.1442 22.0047 20.1442H20.1818V21.4823C20.1818 22.481 20.2206 22.8688 20.3176 23.0143C20.4533 23.1888 20.6375 23.1985 24.0312 23.247C27.9777 23.3052 28.0261 23.3149 28.7049 23.9548C29.626 24.8275 29.626 26.3207 28.7049 27.1934C28.0067 27.8528 28.0649 27.8431 23.2555 27.9012C19.0958 27.9497 18.9019 27.9594 18.7661 28.134C18.5722 28.4054 18.5916 29.026 18.8146 29.249C18.9601 29.3945 19.1928 29.4333 20.1915 29.472C21.549 29.5205 22.0532 29.6854 22.5768 30.2381C23.1683 30.8683 23.2265 31.1204 23.2652 33.496L23.304 35.6583H24.7197C25.5051 35.6583 26.3002 35.6874 26.4941 35.7165L26.8529 35.7747L27.2989 34.9214C27.9583 33.6415 28.5497 32.9142 30.7508 30.6647C33.3688 27.9885 34.0476 27.0286 34.5905 25.2154C34.8039 24.5075 34.8524 24.11 34.8911 22.8882C34.9202 21.9865 34.9008 21.1041 34.8233 20.6193C34.0863 15.5675 30.0139 11.272 25.0591 10.2927C24.6421 10.2151 24.1961 10.1279 24.07 10.0988C23.847 10.0503 23.847 10.0697 23.8955 10.4188Z" fill="#3B6DA7"/>
    <path d="M10.2237 20.406C10.1752 20.5611 10.1461 21.5017 10.1558 22.5198C10.1558 24.236 10.1752 24.4203 10.4176 25.2154C10.98 27.048 11.6587 28.0079 14.2185 30.6162C16.313 32.7494 17.1662 33.7966 17.7771 35.0086L18.1553 35.7747L18.514 35.7165C18.7079 35.6874 19.5127 35.6583 20.3078 35.6583H21.7332V33.5251C21.7332 30.8683 21.8399 31.0525 20.1721 30.9847C18.834 30.9265 18.3977 30.8004 17.8644 30.2962C16.9723 29.4527 16.9335 28.0273 17.7868 27.1449C17.9613 26.9607 18.2716 26.728 18.4849 26.6116C18.8631 26.408 18.9988 26.3983 23.2652 26.3498C27.4734 26.3013 27.6674 26.2916 27.8031 26.1171C27.9776 25.8747 27.9776 25.2735 27.8031 25.0311C27.6674 24.8566 27.4831 24.8469 24.0894 24.7984C20.143 24.7402 20.0945 24.7305 19.4158 24.0906C18.834 23.5379 18.6983 23.0822 18.6498 21.5211L18.6013 20.1442H14.4513H10.2915L10.2237 20.406Z" fill="#3B6DA7"/>
    <path d="M36.2874 24.1391C36.1905 24.876 35.8026 26.2626 35.4632 27.0383C35.4051 27.1741 35.502 27.2032 36.1517 27.242C37.8097 27.3486 39.2739 28.2407 40.2435 29.7436C40.8156 30.626 40.9804 31.2562 40.9804 32.5555C40.9804 33.8548 40.8156 34.4851 40.2435 35.3675C39.5551 36.4438 38.4885 37.2873 37.3831 37.6558C36.5783 37.9176 34.8136 37.9176 33.9991 37.6461C32.3895 37.1225 31.0417 35.6971 30.5472 34.01C30.4308 33.5833 30.2951 33.2343 30.2563 33.2343C30.0818 33.2343 28.9667 34.8051 28.5595 35.6099L28.1328 36.4826L28.3752 36.9674C28.5788 37.3552 28.6273 37.5685 28.6079 38.0631L28.5885 38.6739L29.1218 39.2169L29.6648 39.7599L30.0333 39.4593C31.1193 38.5867 32.7774 38.6642 33.8827 39.6242C34.3288 40.0217 34.8233 41.001 34.8233 41.4956V41.864H35.6959H36.5686V41.4956C36.5686 41.2725 36.685 40.875 36.8595 40.5259C37.3637 39.5175 38.1976 38.9551 39.303 38.8775C40.1272 38.8194 40.7283 38.9842 41.3004 39.4205L41.7368 39.7502L42.3088 39.1684L42.8906 38.5964L42.5609 38.16C41.7368 37.074 41.824 35.445 42.7646 34.3688C43.1427 33.9518 43.9281 33.5252 44.5002 33.4379L44.9559 33.3797V32.5555V31.7314L44.5002 31.6732C43.1621 31.4792 42.1149 30.3351 42.018 28.9485C41.9598 28.1243 42.1246 27.5231 42.5609 26.9511L42.8906 26.5147L42.3088 25.9426L41.7368 25.3609L41.3004 25.6905C40.2144 26.5244 38.5855 26.4275 37.4995 25.4675C37.0631 25.0894 36.5686 24.11 36.5686 23.6155C36.5686 22.9368 36.4135 23.2374 36.2874 24.1391Z" fill="#3B6DA7"/>
    <path d="M7.09178 31.1495L4.1344 34.1069L5.56946 35.5322L6.99482 36.9673L9.87463 34.0875L12.7447 31.2174L11.9399 30.335C11.1351 29.4623 10.2916 28.4054 10.2916 28.26C10.2916 28.0079 9.72918 28.5121 7.09178 31.1495Z" fill="#3B6DA7"/>
    <path d="M34.5808 28.803C34.4257 28.8805 34.096 29.1714 33.8536 29.4623C33.6112 29.7532 33.0488 30.3738 32.6028 30.8392L31.798 31.6925L31.8368 32.6815C31.8658 33.5348 31.9046 33.7578 32.1567 34.2523C32.5155 34.9989 33.2524 35.7358 33.999 36.1043C34.542 36.3661 34.6584 36.3855 35.6959 36.3855C36.7334 36.3855 36.8498 36.3661 37.3928 36.1043C38.1394 35.7358 38.8763 34.9989 39.2448 34.2523C39.5066 33.7093 39.5259 33.593 39.5259 32.5554C39.5259 31.5179 39.5066 31.4016 39.2448 30.8586C38.8763 30.112 38.1394 29.3751 37.3928 29.0163C36.8885 28.7642 36.6849 28.7254 35.8413 28.6963C35.1723 28.6866 34.7844 28.7157 34.5808 28.803ZM36.5492 30.4804C38.0327 31.0913 38.4012 33.0694 37.2376 34.1747C35.8123 35.5225 33.4657 34.5238 33.4657 32.5554C33.4657 31.6828 33.9603 30.9168 34.7747 30.4901C35.1529 30.2865 36.0837 30.2865 36.5492 30.4804Z" fill="#3B6DA7"/>
    <path d="M35.1142 31.9738C34.9881 32.0999 34.9202 32.2938 34.9202 32.5556C34.9202 33.0695 35.182 33.3313 35.6959 33.3313C36.2098 33.3313 36.4716 33.0695 36.4716 32.5556C36.4716 32.2938 36.4038 32.0999 36.2777 31.9738C36.1517 31.8478 35.9577 31.7799 35.6959 31.7799C35.4341 31.7799 35.2402 31.8478 35.1142 31.9738Z" fill="#3B6DA7"/>
    <path d="M10.8733 35.1251L8.01288 37.9855L9.44793 39.4109L10.8733 40.8459L13.5883 38.131C15.0815 36.6377 16.3032 35.3675 16.3032 35.3093C16.3032 35.0088 14.044 32.2647 13.7919 32.2647C13.7628 32.2647 12.4441 33.5543 10.8733 35.1251Z" fill="#3B6DA7"/>
    <path d="M2.36963 38.0631L1.37091 40.6521L2.85445 42.1356L4.33799 43.6191L6.89782 42.6301C8.31348 42.0871 9.48674 41.6217 9.51582 41.6023C9.55461 41.5635 3.49441 35.4645 3.40714 35.4645C3.37805 35.4645 2.91263 36.6281 2.36963 38.0631Z" fill="#3B6DA7"/>
    <path d="M18.0486 37.4037C17.9225 37.5298 17.8547 37.7237 17.8547 37.9855C17.8547 38.2473 17.9225 38.4413 18.0486 38.5673C18.2328 38.7515 18.3686 38.7612 22.5089 38.7612C26.6492 38.7612 26.785 38.7515 26.9692 38.5673C27.0953 38.4413 27.1631 38.2473 27.1631 37.9855C27.1631 37.7237 27.0953 37.5298 26.9692 37.4037C26.785 37.2195 26.6492 37.2098 22.5089 37.2098C18.3686 37.2098 18.2328 37.2195 18.0486 37.4037Z" fill="#3B6DA7"/>
    <path d="M18.0486 40.5065C17.9225 40.6326 17.8547 40.8265 17.8547 41.0883C17.8547 41.3501 17.9225 41.544 18.0486 41.6701C18.2328 41.8543 18.3686 41.864 22.5089 41.864C26.6492 41.864 26.785 41.8543 26.9692 41.6701C27.0953 41.544 27.1631 41.3501 27.1631 41.0883C27.1631 40.8265 27.0953 40.6326 26.9692 40.5065C26.785 40.3223 26.6492 40.3126 22.5089 40.3126C18.3686 40.3126 18.2328 40.3223 18.0486 40.5065Z" fill="#3B6DA7"/>
    <path d="M0.692171 42.407C-0.161106 44.5983 -0.190195 44.9668 0.53703 44.9668C0.789134 44.9668 2.64113 44.3074 2.77688 44.1717C2.79627 44.1523 2.35994 43.6772 1.80725 43.1245L0.798831 42.1161L0.692171 42.407Z" fill="#3B6DA7"/>
    <path d="M19.8909 43.7063C21.0932 45.3935 23.9246 45.3935 25.1269 43.7063L25.3305 43.4154H22.5089H19.6873L19.8909 43.7063Z" fill="#3B6DA7"/>
</svg>
