<svg width="24" height="24" viewBox="0 0 24 24" fill="none" xmlns="http://www.w3.org/2000/svg">
    <path d="M7 3.5C7 2.96957 7.21071 2.46086 7.58579 2.08579C7.96086 1.71071 8.46957 1.5 9 1.5H15C15.5304 1.5 16.0391 1.71071 16.4142 2.08579C16.7893 2.46086 17 2.96957 17 3.5V5.5H21C21.2652 5.5 21.5196 5.60536 21.7071 5.79289C21.8946 5.98043 22 6.23478 22 6.5C22 6.76522 21.8946 7.01957 21.7071 7.20711C21.5196 7.39464 21.2652 7.5 21 7.5H19.931L19.064 19.642C19.0281 20.1466 18.8023 20.6188 18.4321 20.9636C18.0619 21.3083 17.5749 21.5 17.069 21.5H6.93C6.42414 21.5 5.93707 21.3083 5.56688 20.9636C5.1967 20.6188 4.97092 20.1466 4.935 19.642L4.07 7.5H3C2.73478 7.5 2.48043 7.39464 2.29289 7.20711C2.10536 7.01957 2 6.76522 2 6.5C2 6.23478 2.10536 5.98043 2.29289 5.79289C2.48043 5.60536 2.73478 5.5 3 5.5H7V3.5ZM9 5.5H15V3.5H9V5.5ZM6.074 7.5L6.931 19.5H17.07L17.927 7.5H6.074ZM10 9.5C10.2652 9.5 10.5196 9.60536 10.7071 9.79289C10.8946 9.98043 11 10.2348 11 10.5V16.5C11 16.7652 10.8946 17.0196 10.7071 17.2071C10.5196 17.3946 10.2652 17.5 10 17.5C9.73478 17.5 9.48043 17.3946 9.29289 17.2071C9.10536 17.0196 9 16.7652 9 16.5V10.5C9 10.2348 9.10536 9.98043 9.29289 9.79289C9.48043 9.60536 9.73478 9.5 10 9.5ZM14 9.5C14.2652 9.5 14.5196 9.60536 14.7071 9.79289C14.8946 9.98043 15 10.2348 15 10.5V16.5C15 16.7652 14.8946 17.0196 14.7071 17.2071C14.5196 17.3946 14.2652 17.5 14 17.5C13.7348 17.5 13.4804 17.3946 13.2929 17.2071C13.1054 17.0196 13 16.7652 13 16.5V10.5C13 10.2348 13.1054 9.98043 13.2929 9.79289C13.4804 9.60536 13.7348 9.5 14 9.5Z" fill="white"/>
</svg>
