<svg width="25" height="24" viewBox="0 0 25 24" fill="none" xmlns="http://www.w3.org/2000/svg">
    <path d="M7.29166 6.5H6.24999C5.69746 6.5 5.16755 6.71071 4.77685 7.08579C4.38615 7.46086 4.16666 7.96957 4.16666 8.5V17.5C4.16666 18.0304 4.38615 18.5391 4.77685 18.9142C5.16755 19.2893 5.69746 19.5 6.24999 19.5H15.625C16.1775 19.5 16.7074 19.2893 17.0981 18.9142C17.4888 18.5391 17.7083 18.0304 17.7083 17.5V16.5" stroke="white" stroke-width="2" stroke-linecap="round" stroke-linejoin="round"/>
    <path d="M16.6667 4.50011L19.7917 7.50011M21.2344 6.08511C21.6446 5.69126 21.8751 5.15709 21.8751 4.60011C21.8751 4.04312 21.6446 3.50895 21.2344 3.11511C20.8241 2.72126 20.2677 2.5 19.6875 2.5C19.1073 2.5 18.5509 2.72126 18.1406 3.11511L9.375 11.5001V14.5001H12.5L21.2344 6.08511Z" stroke="white" stroke-width="2" stroke-linecap="round" stroke-linejoin="round"/>
</svg>
