<svg width="46" height="46" viewBox="0 0 46 46" fill="none" xmlns="http://www.w3.org/2000/svg">
    <path d="M16.8794 1.80164C16.5472 2.13387 16.4833 2.2872 16.4833 2.79831C16.4833 3.56498 16.8156 4.02498 17.5056 4.22942C17.9144 4.3572 18.0678 4.34442 18.4894 4.13998C19.9589 3.41164 19.4861 1.40553 17.8506 1.40553C17.3778 1.40553 17.1989 1.46942 16.8794 1.80164ZM18.4767 2.49164C18.8983 3.13053 18.2211 3.82053 17.5694 3.39887C17.2244 3.16887 17.135 2.59387 17.4033 2.32553C17.6717 2.0572 18.2467 2.14664 18.4767 2.49164Z" fill="#BB95DD"/>
    <path d="M34.27 1.67382C32.4939 2.00605 31.4461 3.80771 31.9572 5.68605C32.1361 6.36327 33.2222 7.42382 33.9378 7.64105C35.995 8.25438 37.9628 6.83605 37.9628 4.72771C37.9756 2.73438 36.2506 1.31605 34.27 1.67382ZM34.7556 2.68327V3.44994L34.2189 3.37327C33.9122 3.32216 33.6439 3.27105 33.6311 3.24549C33.5289 3.16882 33.7717 2.65771 34.0784 2.29994C34.5767 1.69938 34.7556 1.78882 34.7556 2.68327ZM35.765 2.38938C36.2378 2.96438 36.2761 3.32216 35.88 3.32216C35.7139 3.32216 35.4584 3.36049 35.305 3.39882C35.0239 3.47549 35.0111 3.44994 35.0111 2.69605C35.0111 1.76327 35.19 1.6866 35.765 2.38938ZM33.695 2.40216C33.5672 2.52994 33.4778 2.70882 33.4778 2.78549C33.4778 3.00271 33.2478 3.09216 32.9539 3.00271C32.7367 2.92605 32.7239 2.88771 32.8645 2.7216C33.0689 2.46605 33.7717 2.0316 33.8484 2.10827C33.8739 2.1466 33.81 2.27438 33.695 2.40216ZM36.5317 2.38938C36.7872 2.56827 37.0172 2.74716 37.0556 2.77271C37.1322 2.8366 36.7745 3.0666 36.6084 3.0666C36.5445 3.0666 36.3528 2.8366 36.1867 2.55549C35.8417 1.95494 35.9056 1.92938 36.5317 2.38938ZM32.89 3.21994C33.1839 3.34771 33.2095 3.4116 33.1456 3.88438C33.0306 4.68938 33.005 4.72771 32.5195 4.72771C32.1234 4.72771 32.0722 4.68938 32.0722 4.40827C32.0722 4.11438 32.43 3.0666 32.5322 3.0666C32.5578 3.0666 32.7111 3.13049 32.89 3.21994ZM37.4772 3.51382C37.5922 3.76938 37.6945 4.13994 37.6945 4.34438C37.6945 4.70216 37.6561 4.72771 37.2472 4.72771C36.7617 4.72771 36.7361 4.68938 36.6211 3.88438C36.5572 3.42438 36.5828 3.34771 36.8384 3.21994C37.2472 3.02827 37.2472 3.02827 37.4772 3.51382ZM34.4361 3.6416C34.7172 3.70549 34.7556 3.78216 34.7556 4.2166V4.72771H34.0528H33.35V4.29327C33.35 3.62882 33.465 3.43716 33.81 3.51382C33.9761 3.55216 34.2572 3.60327 34.4361 3.6416ZM36.4167 4.16549V4.72771H35.7139H35.0111V4.2166C35.0111 3.74382 35.0367 3.71827 35.4967 3.6416C35.7522 3.59049 36.0334 3.53938 36.0972 3.5266C36.34 3.44994 36.4167 3.60327 36.4167 4.16549ZM32.775 4.98327C33.005 4.98327 33.0817 5.07271 33.1456 5.45605C33.1967 5.8266 33.1711 5.97994 33.005 6.09494C32.6472 6.36327 32.4939 6.2866 32.2767 5.74994C32.0084 5.08549 32.0084 4.80438 32.2767 4.9066C32.3917 4.94494 32.6089 4.98327 32.775 4.98327ZM34.7556 5.31549C34.7556 5.69882 34.73 5.72438 34.155 5.80105C33.5034 5.89049 33.35 5.78827 33.35 5.23882C33.35 4.93216 33.3884 4.91938 34.0528 4.91938C34.7556 4.91938 34.7556 4.91938 34.7556 5.31549ZM36.4167 5.32827C36.4167 5.83938 36.3656 5.86494 35.6117 5.78827C35.0622 5.72438 35.0111 5.68605 35.0111 5.3666C35.0111 5.17494 35.0367 4.99605 35.0622 4.97049C35.1006 4.94494 35.4072 4.91938 35.765 4.91938C36.4167 4.91938 36.4167 4.91938 36.4167 5.32827ZM37.5156 5.80105C37.3111 6.2866 37.1067 6.36327 36.7745 6.09494C36.6339 5.99271 36.5956 5.80105 36.6339 5.46882C36.6978 5.03438 36.7361 4.99605 37.1706 4.95771C37.72 4.9066 37.8095 5.11105 37.5156 5.80105ZM34.7556 6.77216V7.53882L34.4361 7.38549C34.1167 7.24494 33.6056 6.55494 33.6056 6.2866C33.6056 6.13327 33.8867 6.04382 34.4106 6.01827C34.7556 6.00549 34.7556 6.01827 34.7556 6.77216ZM36.0206 6.12049C36.1228 6.18438 36.1611 6.32494 36.0972 6.50382C36.0078 6.79771 35.3178 7.53882 35.1261 7.53882C35.0622 7.53882 35.0111 7.19382 35.0111 6.77216V6.00549H35.4328C35.65 6.00549 35.9184 6.0566 36.0206 6.12049ZM33.5672 6.77216C33.7206 7.05327 33.7972 7.28327 33.7461 7.28327C33.7078 7.28327 33.4395 7.12994 33.1711 6.95105C32.6984 6.6316 32.6856 6.59327 32.9028 6.43994C33.235 6.19716 33.2478 6.19716 33.5672 6.77216ZM36.8639 6.43994C37.0811 6.59327 37.0684 6.6316 36.5445 7.01494C36.2378 7.23216 35.9695 7.39827 35.9439 7.37271C35.8928 7.30882 36.455 6.26105 36.5572 6.26105C36.5956 6.26105 36.7361 6.33771 36.8639 6.43994Z" fill="#BB95DD"/>
    <path d="M12.88 2.54285C12.5478 2.61952 12.5989 2.6834 13.9917 3.74396C14.7967 4.35729 15.4611 4.90674 15.4611 4.97063C15.4611 5.02174 15.0011 5.72452 14.4389 6.52952C13.8894 7.32174 13.4422 7.99896 13.4678 8.01174C13.4805 8.02452 13.8511 7.98618 14.2983 7.90952L15.0905 7.76896L15.9594 6.52952C16.4322 5.85229 16.9178 5.14952 17.0455 4.97063L17.25 4.63841L15.755 3.53952C14.1705 2.37674 13.9278 2.30007 12.88 2.54285ZM16.4578 4.45952C16.7133 4.61285 16.5855 5.04729 16.2789 5.08563C15.9594 5.13674 15.7678 4.77896 15.985 4.52341C16.1511 4.31896 16.2278 4.30618 16.4578 4.45952Z" fill="#BB95DD"/>
    <path d="M17.6589 4.93226C16.7644 5.55837 16.8156 6.98948 17.7611 7.47504C19.0517 8.13948 20.4189 6.79782 19.7544 5.50726C19.3711 4.77893 18.2978 4.48504 17.6589 4.93226ZM18.9367 5.71171C19.2561 5.99282 19.2306 6.46559 18.8856 6.69559C18.515 6.95115 18.285 6.95115 17.9911 6.68282C17.71 6.42726 17.6972 6.03115 17.9783 5.72448C18.2339 5.44337 18.63 5.43059 18.9367 5.71171Z" fill="#BB95DD"/>
    <path d="M18.7194 12.8543C14.1578 16.5471 10.3117 19.6521 10.1711 19.7415C10.0306 19.8437 9.97944 19.9715 10.0433 20.0865C10.2478 20.4187 10.7972 21.0832 10.8867 21.0832C10.925 21.0832 11.5383 20.6232 12.2283 20.061C13.1994 19.2687 13.5061 19.0771 13.6083 19.2049C13.685 19.3071 14.375 20.1632 15.1417 21.1343C16.3428 22.6293 16.5856 22.8721 16.8411 22.8082C17.0456 22.7571 17.1222 22.7954 17.1222 22.9487C17.1222 23.1021 16.1639 28.2515 15.4483 31.906C15.3717 32.2765 15.2439 32.5832 15.1672 32.5832C14.8606 32.5832 0.626111 34.7171 0.575 34.7682C0.549444 34.8065 4.98333 36.4293 10.4267 38.3843L20.3294 41.9365L23.3578 41.5276C25.0189 41.2976 29.0311 40.761 32.2511 40.3265L38.1289 39.5471L40.8633 28.0087C42.3711 21.6582 43.5722 16.4449 43.5467 16.4065C43.5083 16.381 39.905 16.0104 35.5094 15.576C31.1267 15.1415 27.5106 14.771 27.485 14.7454C27.4594 14.7326 27.6128 14.4515 27.83 14.1321L28.2133 13.5699L26.6928 11.6787C25.8622 10.631 25.1722 9.7493 25.1722 9.69819C25.1722 9.5193 26.3478 8.66319 26.4372 8.76541C26.5778 8.91874 28.2517 11.0015 28.405 11.2187C28.4944 11.3337 28.4433 11.4743 28.2644 11.666L27.9833 11.9599L28.8906 13.0715C29.4528 13.7871 29.8361 14.1576 29.9383 14.0937C30.3344 13.851 31.6889 12.7137 31.6889 12.6243C31.6889 12.5604 31.3056 12.0365 30.8328 11.4615C30.36 10.8865 29.9639 10.3882 29.9383 10.3626C29.9256 10.3371 29.8106 10.3882 29.7083 10.4776C29.5933 10.5799 29.4656 10.5926 29.4017 10.5287C29.0056 10.1199 27.3444 8.01152 27.3444 7.92208C27.3444 7.85819 27.4978 7.70486 27.6894 7.5643L28.0344 7.30874L27.6 6.72097C27.3572 6.40152 27.1272 6.14597 27.0889 6.14597C27.0506 6.14597 23.2939 9.16152 18.7194 12.8543ZM34.2444 17.2626C38.0011 17.6971 41.0933 18.0676 41.1061 18.0676C41.1189 18.0804 40.8506 19.256 40.5056 20.6999C40.1606 22.1437 39.1256 26.5137 38.2056 30.411C37.2856 34.3082 36.5061 37.5154 36.4933 37.541C36.4422 37.5793 16.8411 32.0721 16.7517 31.9954C16.6878 31.9315 18.515 22.4632 18.6428 22.2332C18.6939 22.131 19.9206 21.556 21.3517 20.9554L23.9583 19.8693L25.1594 18.0932L26.3478 16.3299L26.8844 16.3937C27.1656 16.4321 30.4878 16.8282 34.2444 17.2626ZM15.3844 37.8221C16.8539 38.3076 18.0806 38.7293 18.1061 38.7549C18.1317 38.7804 17.5311 38.8826 16.7644 38.9721L15.3589 39.1254L13.4039 38.3971C12.3178 37.9882 11.2317 37.5665 10.9889 37.4515L10.5417 37.2599L11.5639 37.1065C12.1261 37.0299 12.6117 36.9532 12.65 36.9404C12.6883 36.9404 13.915 37.3237 15.3844 37.8221Z" fill="#BB95DD"/>
    <path d="M29.9511 20.406C29.9767 20.5338 30.0789 20.9683 30.1684 21.3644C30.3217 22.0799 30.3345 22.0927 30.7817 22.131L31.2417 22.1694L31.4845 23.1788C31.6634 23.9199 31.6889 24.2138 31.5867 24.2522C31.51 24.2777 31.3184 24.3927 31.165 24.5205C30.8839 24.7377 30.8839 24.7505 31.1011 25.7088L31.3184 26.6799L33.9634 25.0188C35.42 24.1116 36.7361 23.281 36.8767 23.1916C37.145 23.0255 37.145 22.9999 36.9534 22.0544C36.8511 21.5177 36.7234 21.0833 36.6722 21.0833C36.6211 21.0833 35.19 20.8788 33.4778 20.636C29.8489 20.1122 29.8617 20.1122 29.9511 20.406ZM34.3084 22.4633L34.8067 22.5527L33.9122 23.0255L33.005 23.4983L32.8772 22.936L32.7495 22.361L33.2734 22.3738C33.5545 22.3738 34.0272 22.4122 34.3084 22.4633Z" fill="#BB95DD"/>
    <path d="M22.3611 29.6061V32.2H24.1372C25.76 32.2 25.9389 32.1744 26.335 31.9061C26.91 31.5227 27.1144 31.1011 27.0378 30.475C26.9994 30.1044 26.8716 29.8744 26.6033 29.6572L26.2328 29.3633L26.5394 29.0566C26.9994 28.5838 26.8716 27.6511 26.2966 27.3188C26.105 27.2166 25.3383 27.1272 24.1755 27.0888L22.3611 27.025V29.6061ZM25.1466 28.3538C25.2489 28.4177 25.3 28.5711 25.2744 28.6988C25.2489 28.8905 25.0955 28.9544 24.5589 28.98L23.8944 29.0183V28.635C23.8944 28.2516 23.92 28.2388 24.4439 28.2388C24.7378 28.2388 25.0572 28.29 25.1466 28.3538ZM25.4022 30.4366C25.4405 30.7177 25.3766 30.82 25.1083 30.9222C24.9294 30.9861 24.5716 31.05 24.3289 31.05C23.9072 31.05 23.8944 31.0372 23.8944 30.5388V30.015L24.6355 30.0533C25.3255 30.0916 25.3639 30.1044 25.4022 30.4366Z" fill="#BB95DD"/>
    <path d="M41.9367 8.30551L41.3872 8.54829L41.5917 9.02107C41.6939 9.27662 41.7834 9.49385 41.7834 9.5194C41.7834 9.53218 40.8761 9.90273 39.7517 10.3372C37.9372 11.0655 37.7072 11.1933 37.5284 11.5511C37.3878 11.845 37.1961 12.0111 36.8128 12.1388C36.5189 12.2283 36.2506 12.3561 36.2122 12.42C36.1484 12.5222 36.6467 13.9277 36.7361 13.9277C36.7617 13.9277 37.03 13.8255 37.3367 13.6977C37.7584 13.5188 37.9884 13.4933 38.3717 13.5827C38.7934 13.685 39.0489 13.6211 40.7995 12.9183C41.86 12.4838 42.78 12.1388 42.8311 12.1388C42.8695 12.1388 42.9461 12.305 42.9972 12.5222C43.0995 12.9566 43.2272 12.9822 43.8917 12.7011C44.3772 12.4966 44.3772 12.5222 44.1345 11.7555C44.0834 11.615 44.3261 11.4616 45.0289 11.1933C45.5656 10.9888 46 10.8227 46 10.81C46 10.7077 45.0672 8.47162 44.9906 8.39496C44.9395 8.34385 44.4795 8.47162 43.9556 8.68885C43.4445 8.89329 43.01 9.07218 42.9972 9.07218C42.9845 9.07218 42.895 8.84218 42.8056 8.56107C42.7161 8.27996 42.6011 8.04996 42.5628 8.06273C42.5245 8.06273 42.2434 8.17773 41.9367 8.30551ZM42.32 10.8355C42.4989 11.3083 42.6139 11.73 42.5756 11.7683C42.5245 11.8066 41.6556 12.1772 40.6461 12.5733C38.9978 13.225 38.7422 13.2888 38.3206 13.1866C37.9756 13.0972 37.7456 13.1227 37.4261 13.2505C37.0428 13.4166 36.9789 13.4038 36.8384 13.2122C36.5572 12.8288 36.6467 12.5861 37.1067 12.42C37.3622 12.3177 37.6434 12.0877 37.7839 11.8577C37.9756 11.5255 38.3206 11.3338 39.9306 10.6694C40.9911 10.235 41.8728 9.90273 41.9111 9.92829C41.9495 9.96662 42.1284 10.3755 42.32 10.8355Z" fill="#BB95DD"/>
    <path d="M5.94167 8.86786C5.11111 9.25119 4.17833 10.2734 3.96111 11.0529C3.39889 13.059 5.21333 15.3845 7.34722 15.3845C9.03389 15.3717 10.6056 13.8512 10.6056 12.2412C10.6056 11.8323 10.12 10.6056 9.96667 10.6056C9.91556 10.6056 9.57056 10.874 9.21278 11.1934C8.61222 11.7429 8.56111 11.8195 8.63778 12.2156C8.75278 12.8545 8.61222 13.2634 8.165 13.4806C7.61556 13.7745 7.09167 13.6212 6.45278 12.9695C5.77556 12.3051 5.53278 11.6406 5.75 11.104C5.83944 10.8995 6.01833 10.6695 6.14611 10.6056C6.42722 10.4523 6.97667 10.4395 7.25778 10.5929C7.42389 10.6823 7.64111 10.5545 8.165 10.0817C8.94444 9.37897 8.93167 9.27674 7.99889 8.82952C7.29611 8.48452 6.73389 8.4973 5.94167 8.86786Z" fill="#BB95DD"/>
    <path d="M44.7222 17.1733C44.7222 17.1988 43.9172 20.6616 42.9333 24.8655C41.9494 29.0822 40.7228 34.2827 40.2244 36.4422L39.3044 40.3522L38.2822 40.5055C37.7072 40.5822 33.4267 41.2083 28.75 41.8983L20.2528 43.1377L19.4861 42.8566C17.7739 42.205 0.140556 35.7777 0.0766667 35.7777C0.0383333 35.7777 0 36.0333 0 36.34V36.8894L1.55889 37.4772C2.42778 37.7966 6.95111 39.5216 11.6278 41.3105L20.125 44.5688L30.0917 42.9844C35.5733 42.1155 40.1222 41.3744 40.1989 41.3488C40.2883 41.3105 40.5311 40.5566 40.7483 39.6494C41.4511 36.7488 43.5083 28.175 44.7094 23.1916C45.3611 20.5211 45.9106 18.2338 45.9489 18.1188C45.9872 17.9655 45.8467 17.7738 45.4761 17.5055C44.9906 17.1605 44.7222 17.0327 44.7222 17.1733Z" fill="#BB95DD"/>
    <path d="M5.68609 22.6421C5.09831 22.8594 4.26775 23.4983 3.90998 24.0094C2.58109 25.9388 3.2072 28.4816 5.26442 29.5038C6.26109 30.0021 7.4622 30.0533 8.44609 29.6316C9.05942 29.3633 9.08498 29.3633 9.32775 29.5805C9.57053 29.7977 9.59609 29.7977 9.83887 29.5805C10.0816 29.3633 10.1328 29.3888 11.5639 30.4621C12.3816 31.0627 13.0972 31.561 13.1483 31.561C13.1994 31.561 13.4294 31.3055 13.6594 30.986L14.0683 30.4238L12.5605 29.2994C11.73 28.686 11.04 28.1749 11.0144 28.1621C10.9889 28.1494 11.0272 28.0216 11.1039 27.881C11.2189 27.6766 11.1933 27.5871 10.9633 27.4466C10.7205 27.2805 10.6822 27.1399 10.6822 26.2455C10.6694 25.466 10.6055 25.0955 10.3755 24.6483C9.69831 23.2683 8.45887 22.4888 6.96387 22.5016C6.47831 22.5016 5.90331 22.5655 5.68609 22.6421ZM7.83275 24.201C8.7272 24.5716 9.28942 25.6833 9.0722 26.6288C8.77831 27.9321 7.48775 28.6605 6.22275 28.2516C5.23887 27.9194 4.54887 26.6416 4.84275 25.6833C5.23887 24.3544 6.59331 23.6771 7.83275 24.201Z" fill="#BB95DD"/>
</svg>
