<svg width="18" height="18" viewBox="0 0 18 18" fill="none" xmlns="http://www.w3.org/2000/svg">
    <path fill-rule="evenodd" clip-rule="evenodd" d="M3.75007 6.75C3.75007 5.35761 4.30319 4.02226 5.28776 3.03769C6.27233 2.05312 7.60768 1.5 9.00007 1.5C10.3925 1.5 11.7278 2.05312 12.7124 3.03769C13.6969 4.02226 14.2501 5.35761 14.2501 6.75V9.573L15.6166 12.306C15.6795 12.4318 15.7092 12.5716 15.7029 12.7121C15.6965 12.8526 15.6544 12.9891 15.5805 13.1088C15.5065 13.2284 15.4032 13.3271 15.2804 13.3956C15.1575 13.4641 15.0192 13.5 14.8786 13.5H11.9056C11.7387 14.1437 11.3629 14.7137 10.837 15.1207C10.3111 15.5276 9.66502 15.7485 9.00007 15.7485C8.33512 15.7485 7.689 15.5276 7.16312 15.1207C6.63725 14.7137 6.2614 14.1437 6.09457 13.5H3.12157C2.98093 13.5 2.84262 13.4641 2.71977 13.3956C2.59692 13.3271 2.49362 13.2284 2.41968 13.1088C2.34573 12.9891 2.3036 12.8526 2.29728 12.7121C2.29096 12.5716 2.32066 12.4318 2.38357 12.306L3.75007 9.573V6.75ZM7.70107 13.5C7.83273 13.728 8.02208 13.9174 8.2501 14.049C8.47812 14.1806 8.73678 14.2499 9.00007 14.2499C9.26336 14.2499 9.52202 14.1806 9.75004 14.049C9.97806 13.9174 10.1674 13.728 10.2991 13.5H7.70107ZM9.00007 3C8.00551 3 7.05168 3.39509 6.34842 4.09835C5.64516 4.80161 5.25007 5.75544 5.25007 6.75V9.573C5.25005 9.80575 5.19588 10.0353 5.09182 10.2435L4.21432 12H13.7866L12.9091 10.2435C12.8048 10.0354 12.7503 9.80581 12.7501 9.573V6.75C12.7501 5.75544 12.355 4.80161 11.6517 4.09835C10.9485 3.39509 9.99463 3 9.00007 3Z" fill="white" fill-opacity="0.3"/>
</svg>
