<svg width="55" height="49" viewBox="0 0 55 49" fill="none" xmlns="http://www.w3.org/2000/svg">
    <g clip-path="url(#clip0_419_23012)">
        <path d="M24.3522 1.7875C24.456 2.78437 24.5598 4.09063 24.5598 4.675V5.74062L28.4686 5.9125C30.5787 6.01562 32.8271 6.29062 33.3805 6.53125C33.9686 6.77187 34.9026 7.18438 35.5252 7.425C36.1133 7.7 36.7013 7.90625 36.8051 7.90625C37.2894 7.90625 40.0566 9.86562 41.6478 11.3438C43.412 12.9594 45.9026 16.0875 46.629 17.5312C48.3585 21.1063 48.8774 23.2031 48.912 27.1562C48.9466 30.6625 48.8428 31.4531 47.9434 34.0312C45.7296 40.5969 41.1982 45.375 34.7642 47.9531C32.7579 48.7781 31.6856 48.95 28.4686 49.0875L24.5598 49.2594V52.1125V55H27.9843C31.651 55 35.2831 54.2781 38.1195 52.9719C39.0189 52.5938 39.8145 52.25 39.9183 52.25C40.1604 52.25 44.0346 49.8094 44.2768 49.5344C44.3805 49.4313 45.0724 48.8125 45.8334 48.1594C49.6384 44.8938 53.3397 38.7062 54.4466 33.7219C55.1384 30.5594 55.173 24.475 54.4812 21.5875C53.6164 17.875 51.5063 13.3719 49.3617 10.7594C48.4623 9.65937 44.5881 5.84375 44.346 5.84375C44.2076 5.84375 43.6541 5.46563 43.1007 4.98438C42.5472 4.50312 41.89 4.125 41.6133 4.125C41.3711 4.125 41.1636 4.02187 41.1636 3.85C41.1636 3.7125 40.6447 3.40313 40.0566 3.12812C37.8774 2.23438 36.8397 1.7875 35.8019 1.40937C34.0724 0.756248 29.0221 0 26.4969 0H24.1101L24.3522 1.7875Z" fill="#A16BDD"/>
        <path d="M15.3931 2.4749C14.6321 2.85303 13.6635 3.36865 13.2484 3.64365L12.4874 4.1249L13.9057 6.35928C14.6667 7.59678 15.4277 8.6624 15.5315 8.76553C15.739 8.86865 17.9874 7.94053 18.9906 7.32178C19.1289 7.25303 17.2956 2.37178 16.9843 1.99365C16.8805 1.89053 16.1541 2.09678 15.3931 2.4749Z" fill="#A16BDD"/>
        <path d="M5.74215 10.0375C5.39623 10.45 4.80818 11.275 4.42768 11.8937L3.77045 13.0281L5.08491 13.8531C5.81133 14.3 6.88365 14.9187 7.5063 15.2281C8.57862 15.8125 8.57862 15.8125 9.65095 14.575C10.239 13.9218 10.7233 13.2687 10.7233 13.0968C10.7233 12.5812 7.19498 9.28122 6.64152 9.28122C6.50315 9.28122 6.08806 9.62497 5.74215 10.0375Z" fill="#A16BDD"/>
        <path d="M35.7327 18.4937C34.695 19.5594 34.4528 19.8344 29.2295 25.7812C24.0409 31.6594 23.8679 31.8312 23.5912 31.4187C23.0723 30.6969 16.8459 26.0906 16.4654 26.2281C15.8428 26.4344 13.4906 30.5594 13.6981 31.1094C13.8365 31.3844 14.044 31.625 14.1824 31.625C14.3553 31.625 15.0818 32.1406 15.8082 32.725C16.5692 33.3438 17.6069 34.1687 18.1258 34.5469C18.9906 35.1312 20.5126 36.3344 22.5189 37.95C22.7956 38.1906 23.5566 38.6719 24.1792 39.05L25.2862 39.7031L26.3585 38.5C28.434 36.1281 31.6855 32.4844 33.0346 30.9375C39.5377 23.6844 41.1635 21.7594 41.1635 21.45C41.1635 21.1406 38.0503 18.3219 37.1509 17.7719C36.8396 17.6 36.3553 17.8406 35.7327 18.4937Z" fill="#A16BDD"/>
        <path d="M0.380521 20.2126C0.138383 20.7626 1.80453e-05 21.8282 0.0692004 22.5501C0.172974 23.8563 0.207565 23.8907 1.72958 24.097C2.59436 24.2001 3.83964 24.4063 4.53146 24.5438L5.77675 24.8188L5.9497 23.3063C6.05348 22.5157 6.26102 21.5876 6.3648 21.3126C6.53775 20.9001 6.12266 20.6595 4.60065 20.2126C0.761024 19.1126 0.830207 19.0782 0.380521 20.2126Z" fill="#A16BDD"/>
        <path d="M0.79561 30.4907C-0.138352 30.6626 -0.242126 31.9001 0.415107 34.0657C0.864792 35.5782 0.657245 35.5439 4.25473 34.3064C5.67297 33.7907 6.19184 33.447 6.05347 33.1032C5.9497 32.8282 5.88052 32.072 5.88052 31.4189V30.2501L3.73586 30.2845C2.52517 30.3189 1.2107 30.422 0.79561 30.4907Z" fill="#A16BDD"/>
        <path d="M7.8868 39.1187C7.85221 39.2906 6.88366 39.9781 5.77674 40.6656C3.80504 41.9375 3.80504 41.9375 4.28932 42.9C4.56605 43.4156 5.1541 44.275 5.63837 44.825C6.46856 45.7875 6.57234 45.7875 7.33334 45.3062C8.44026 44.55 10.7233 42.35 10.7233 42.0062C10.7233 41.6281 8.54403 38.8437 8.26731 38.8437C8.12894 38.8437 7.95598 38.9812 7.8868 39.1187Z" fill="#A16BDD"/>
        <path d="M14.044 48.3656C13.2138 49.6719 12.6258 50.8062 12.695 50.9781C12.7642 51.1156 13.7673 51.7 14.9088 52.25L16.9497 53.2812L17.9874 51.0125C18.5409 49.7406 19.0252 48.5031 19.0252 48.2625C19.0252 47.9875 18.2642 47.4031 17.2956 46.9219L15.566 46.0625L14.044 48.3656Z" fill="#A16BDD"/>
    </g>
    <defs>
        <clipPath id="clip0_419_23012">
            <rect width="55" height="55" fill="white"/>
        </clipPath>
    </defs>
</svg>
