<svg width="25" height="25" viewBox="0 0 25 25" fill="none" xmlns="http://www.w3.org/2000/svg">
    <path d="M21.138 14.636L21.039 13.641L21.006 13.644L20.974 13.65L21.138 14.636ZM21.138 14.636L21.238 15.631L21.271 15.628L21.303 15.623L21.138 14.636ZM17.098 20.118L17.731 19.344L17.723 19.338L17.098 20.118ZM17.098 20.118L16.465 20.892L16.473 20.899L17.098 20.118ZM7.90199 20.118L7.26899 19.345L7.25299 19.358L7.23799 19.371L7.90199 20.118ZM7.90199 20.118L8.53499 20.893L8.55099 20.88L8.56599 20.866L7.90199 20.118ZM3.86099 10.364V9.36402H3.81099L3.76199 9.36902L3.86099 10.364ZM3.86099 10.364V11.364H3.91099L3.96099 11.359L3.86099 10.364ZM15.631 3.76102C15.6145 3.56867 15.5908 3.37691 15.562 3.18602C15.5311 2.97588 15.467 2.77199 15.372 2.58202L13.595 3.50002C13.572 3.45502 13.577 3.43902 13.59 3.51802C13.605 3.60702 13.618 3.73102 13.641 3.96102L15.631 3.76102ZM15.726 4.71102C15.789 4.79302 15.768 4.83002 15.733 4.63502C15.7 4.44902 15.674 4.18802 15.631 3.76102L13.64 3.96002C13.68 4.35402 13.714 4.70802 13.765 4.99002C13.814 5.26002 13.9 5.61502 14.135 5.92302L15.726 4.71102ZM15.726 4.71102L14.135 5.92302C14.349 6.20387 14.6335 6.42305 14.9597 6.55829C15.2859 6.69354 15.642 6.74002 15.992 6.69302L15.726 4.71102ZM16.464 4.10602C16.2399 4.29543 16.0094 4.4772 15.773 4.65102C15.61 4.76402 15.623 4.72402 15.726 4.71102L15.992 6.69302C16.376 6.64102 16.688 6.45102 16.914 6.29302C17.149 6.13102 17.424 5.90502 17.73 5.65402L16.464 4.10602ZM17.48 3.45602C17.2787 3.52298 17.0893 3.62155 16.919 3.74802C16.779 3.84802 16.622 3.97702 16.464 4.10602L17.73 5.65402C17.909 5.50802 18.006 5.42902 18.08 5.37702C18.145 5.33002 18.136 5.34602 18.089 5.36102L17.48 3.45602ZM18.884 3.52602C18.4399 3.33357 17.941 3.30869 17.48 3.45602L18.089 5.36102L18.884 3.52602ZM19.83 4.27402C19.6953 4.13558 19.5563 4.00151 19.413 3.87202C19.2558 3.72929 19.0769 3.61249 18.883 3.52602L18.089 5.36102C18.043 5.34102 18.036 5.32502 18.096 5.37802C18.164 5.43802 18.253 5.52502 18.416 5.68802L19.83 4.27402ZM20.724 5.16802L19.83 4.27402L18.416 5.68802L19.31 6.58202L20.724 5.16802ZM21.472 6.11402C21.3855 5.92011 21.2687 5.7412 21.126 5.58402C20.9965 5.44108 20.8624 5.30234 20.724 5.16802L19.31 6.58302C19.473 6.74602 19.56 6.83502 19.62 6.90302C19.673 6.96302 19.657 6.95602 19.637 6.91002L21.472 6.11402ZM21.542 7.51802C21.6893 7.05697 21.6644 6.55813 21.472 6.11402L19.637 6.91002L21.542 7.51802ZM20.892 8.53402C21.0162 8.38623 21.1356 8.23449 21.25 8.07902C21.356 7.93102 21.47 7.74702 21.542 7.51802L19.637 6.91002C19.652 6.86302 19.667 6.85302 19.621 6.91902C19.569 6.99202 19.491 7.08902 19.344 7.26802L20.892 8.53402ZM20.287 9.27302C20.274 9.37602 20.234 9.38802 20.347 9.22502C20.454 9.07002 20.62 8.86602 20.892 8.53402L19.344 7.26802C19.094 7.57402 18.867 7.84902 18.704 8.08402C18.547 8.31002 18.357 8.62202 18.305 9.00602L20.287 9.27302ZM20.287 9.27302L18.305 9.00602C18.258 9.35597 18.3045 9.71213 18.4397 10.0383C18.575 10.3645 18.7941 10.649 19.075 10.863L20.287 9.27302ZM21.237 9.36802C20.9446 9.34356 20.6531 9.30921 20.363 9.26502C20.168 9.23002 20.205 9.21002 20.287 9.27302L19.075 10.863C19.383 11.098 19.737 11.184 20.009 11.233C20.29 11.283 20.644 11.318 21.038 11.358L21.237 9.36802ZM22.416 9.62602C22.226 9.53102 22.0221 9.46688 21.812 9.43602C21.6211 9.40719 21.4293 9.38451 21.237 9.36802L21.038 11.358C21.186 11.371 21.3338 11.3877 21.481 11.408C21.561 11.422 21.544 11.427 21.499 11.404L22.416 9.62602ZM23.359 10.669C23.1813 10.2187 22.8462 9.84809 22.416 9.62602L21.5 11.406L23.359 10.669ZM23.499 11.867C23.499 11.663 23.499 11.46 23.488 11.288C23.4779 11.0758 23.434 10.8665 23.358 10.668L21.5 11.406C21.482 11.359 21.488 11.343 21.494 11.423C21.5 11.513 21.5 11.638 21.5 11.869L23.499 11.867ZM23.499 13.131V11.867H21.499V13.131H23.499ZM23.359 14.329C23.447 14.106 23.476 13.892 23.488 13.709C23.499 13.538 23.499 13.335 23.499 13.131H21.499C21.499 13.362 21.499 13.487 21.493 13.577C21.487 13.657 21.481 13.641 21.499 13.594L23.359 14.329ZM22.416 15.372C22.8462 15.15 23.1813 14.7794 23.359 14.329L21.5 13.595L22.416 15.372ZM21.237 15.63C21.441 15.61 21.642 15.59 21.812 15.562C21.992 15.532 22.202 15.482 22.416 15.372L21.5 13.595C21.544 13.572 21.561 13.577 21.482 13.59C21.3348 13.6111 21.1871 13.6281 21.039 13.641L21.237 15.63ZM20.288 15.725C20.205 15.788 20.168 15.768 20.363 15.733C20.549 15.7 20.81 15.673 21.237 15.63L21.038 13.64C20.645 13.68 20.29 13.714 20.009 13.765C19.738 13.814 19.383 13.9 19.075 14.135L20.288 15.725ZM20.288 15.725L19.075 14.135C18.7941 14.349 18.575 14.6336 18.4397 14.9597C18.3045 15.2859 18.258 15.6421 18.305 15.992L20.288 15.725ZM20.892 16.463C20.7026 16.2392 20.5208 16.0091 20.347 15.773C20.234 15.61 20.275 15.622 20.288 15.725L18.305 15.992C18.357 16.376 18.547 16.688 18.705 16.914C18.868 17.149 19.094 17.424 19.344 17.73L20.892 16.463ZM21.542 17.479C21.4749 17.2781 21.3764 17.089 21.25 16.919C21.15 16.778 21.021 16.622 20.892 16.463L19.344 17.73C19.49 17.909 19.569 18.005 19.621 18.079C19.668 18.144 19.653 18.136 19.637 18.089L21.542 17.479ZM21.472 18.884C21.6647 18.4396 21.6896 17.9404 21.542 17.479L19.637 18.089L21.472 18.884ZM20.724 19.83C20.869 19.685 21.012 19.543 21.126 19.413C21.246 19.275 21.376 19.104 21.472 18.883L19.637 18.088C19.657 18.042 19.673 18.036 19.62 18.096C19.56 18.164 19.473 18.252 19.31 18.416L20.724 19.83ZM19.83 20.723L20.724 19.83L19.31 18.416L18.416 19.309L19.83 20.723ZM18.884 21.472C19.078 21.3852 19.2569 21.2681 19.414 21.125C19.543 21.012 19.686 20.868 19.83 20.723L18.416 19.309C18.3122 19.4153 18.2055 19.5187 18.096 19.619C18.036 19.673 18.043 19.657 18.089 19.637L18.884 21.472ZM17.48 21.542C17.941 21.6893 18.4399 21.6645 18.884 21.472L18.089 19.637L17.48 21.542ZM16.464 20.892C16.622 21.021 16.778 21.15 16.919 21.25C17.067 21.355 17.251 21.469 17.48 21.542L18.089 19.637C18.136 19.652 18.145 19.667 18.079 19.621C17.9601 19.5319 17.8437 19.4396 17.73 19.344L16.464 20.892ZM15.726 20.288C15.623 20.273 15.61 20.233 15.773 20.346C15.928 20.454 16.131 20.619 16.463 20.891L17.73 19.344C17.424 19.093 17.149 18.867 16.914 18.704C16.688 18.546 16.376 18.357 15.992 18.305L15.726 20.288ZM15.726 20.288L15.992 18.305C15.642 18.258 15.2859 18.3045 14.9597 18.4397C14.6335 18.575 14.349 18.7942 14.135 19.075L15.726 20.288ZM15.63 21.237C15.673 20.81 15.7 20.548 15.733 20.363C15.768 20.168 15.788 20.204 15.725 20.287L14.135 19.074C13.9 19.382 13.814 19.737 13.765 20.008C13.715 20.29 13.681 20.644 13.641 21.038L15.63 21.237ZM15.371 22.416C15.481 22.202 15.531 21.992 15.561 21.812C15.591 21.642 15.609 21.441 15.63 21.237L13.641 21.038C13.6278 21.1865 13.6105 21.3335 13.589 21.481C13.576 21.561 13.571 21.544 13.594 21.499L15.371 22.416ZM14.33 23.359C14.7796 23.1809 15.1494 22.8459 15.371 22.416L13.595 21.5L14.33 23.359ZM13.13 23.499C13.335 23.499 13.538 23.499 13.71 23.488C13.892 23.476 14.106 23.449 14.33 23.359L13.595 21.5C13.642 21.482 13.658 21.488 13.578 21.494C13.4294 21.5002 13.2807 21.5022 13.132 21.5L13.13 23.499ZM11.867 23.499H13.13L13.131 21.499H11.867V23.499ZM10.669 23.359C10.892 23.447 11.106 23.476 11.289 23.488C11.46 23.499 11.663 23.499 11.867 23.499V21.499C11.636 21.499 11.511 21.499 11.421 21.493C11.341 21.487 11.357 21.481 11.404 21.499L10.669 23.359ZM9.62599 22.416C9.84806 22.8462 10.2186 23.1813 10.669 23.359L11.404 21.499L9.62599 22.416ZM9.36799 21.237C9.38799 21.441 9.40799 21.642 9.43599 21.812C9.46599 21.992 9.51599 22.202 9.62599 22.416L11.406 21.5C11.429 21.544 11.424 21.561 11.411 21.482C11.3899 21.3349 11.3729 21.1871 11.36 21.039L9.36799 21.237ZM9.27299 20.287C9.20999 20.205 9.22999 20.167 9.26499 20.363C9.29799 20.548 9.32499 20.81 9.36799 21.237L11.358 21.038C11.318 20.644 11.284 20.29 11.233 20.008C11.184 19.738 11.098 19.383 10.863 19.075L9.27299 20.287ZM9.27299 20.287L10.863 19.075C10.649 18.7942 10.3644 18.575 10.0383 18.4397C9.7121 18.3045 9.35594 18.258 9.00599 18.305L9.27299 20.287ZM8.53399 20.892C8.86699 20.62 9.06999 20.454 9.22499 20.347C9.38799 20.234 9.37599 20.274 9.27299 20.287L9.00599 18.305C8.62199 18.357 8.30999 18.547 8.08399 18.705C7.84899 18.867 7.57399 19.093 7.26799 19.344L8.53399 20.892ZM7.51799 21.542C7.71929 21.4751 7.90866 21.3765 8.07899 21.25C8.21899 21.15 8.37599 21.021 8.53399 20.892L7.26899 19.345C7.15492 19.4406 7.03921 19.533 6.91999 19.622C6.85499 19.669 6.86399 19.654 6.91099 19.638L7.51799 21.542ZM6.11399 21.472C6.5581 21.6645 7.05694 21.6893 7.51799 21.542L6.90899 19.637L6.11399 21.472ZM5.16699 20.724C5.31199 20.869 5.45499 21.012 5.58499 21.126C5.72199 21.246 5.89299 21.377 6.11499 21.473L6.90899 19.637C6.95499 19.657 6.96199 19.673 6.90199 19.62C6.79247 19.5197 6.68576 19.4163 6.58199 19.31L5.16699 20.724ZM4.27399 19.83L5.16799 20.724L6.58199 19.31L5.68799 18.416L4.27399 19.83ZM3.52599 18.884C3.62099 19.104 3.75199 19.276 3.87199 19.414C3.98599 19.543 4.12899 19.686 4.27399 19.83L5.68799 18.416C5.58171 18.3123 5.47833 18.2055 5.37799 18.096C5.32499 18.036 5.34099 18.043 5.36099 18.089L3.52599 18.884ZM3.45599 17.48C3.30866 17.9411 3.33353 18.4399 3.52599 18.884L5.36099 18.089L3.45599 17.48ZM4.10599 16.464C3.98181 16.6118 3.86241 16.7636 3.74799 16.919C3.62152 17.0894 3.52295 17.2787 3.45599 17.48L5.36099 18.089C5.34499 18.136 5.33099 18.145 5.37699 18.079C5.42899 18.006 5.50699 17.909 5.65399 17.73L4.10599 16.464ZM4.70999 15.725C4.72399 15.622 4.76399 15.61 4.65099 15.773C4.54399 15.928 4.37799 16.132 4.10599 16.464L5.65399 17.73C5.90399 17.424 6.13099 17.149 6.29399 16.914C6.45099 16.688 6.64099 16.376 6.69299 15.992L4.70999 15.725ZM4.70999 15.725L6.69299 15.992C6.73999 15.6421 6.69351 15.2859 6.55826 14.9597C6.42302 14.6336 6.20384 14.349 5.92299 14.135L4.70999 15.725ZM3.75999 15.63C4.18799 15.673 4.44999 15.7 4.63499 15.733C4.82999 15.768 4.79299 15.788 4.70999 15.725L5.92299 14.135C5.61499 13.9 5.26099 13.814 4.98899 13.765C4.70799 13.715 4.35399 13.68 3.95899 13.64L3.75999 15.63ZM2.58199 15.372C2.79599 15.482 3.00599 15.532 3.18599 15.562C3.35599 15.59 3.55699 15.611 3.76099 15.631L3.95899 13.64C3.81089 13.6275 3.66416 13.6108 3.51699 13.59C3.43699 13.576 3.45399 13.571 3.49899 13.594L2.58199 15.372ZM1.63999 14.33C1.81772 14.7804 2.15278 15.151 2.58299 15.373L3.49999 13.595L1.63999 14.33ZM1.49999 13.132C1.49999 13.336 1.49999 13.539 1.51099 13.711C1.52299 13.893 1.55099 14.107 1.64099 14.331L3.49999 13.594C3.51799 13.641 3.51199 13.657 3.50699 13.577C3.50053 13.4288 3.4982 13.2804 3.49999 13.132H1.49999ZM1.49999 11.868V13.132H3.49999V11.868H1.49999ZM1.63999 10.669C1.56434 10.8675 1.52079 11.0768 1.51099 11.289C1.49899 11.461 1.49999 11.664 1.49999 11.869H3.49999C3.49999 11.637 3.49999 11.512 3.50699 11.422C3.51199 11.342 3.51799 11.358 3.49999 11.405L1.63999 10.669ZM2.58299 9.62802C2.15314 9.8496 1.81813 10.2194 1.63999 10.669L3.49999 11.405L2.58299 9.62802ZM3.76199 9.36802C3.55799 9.38902 3.35699 9.40802 3.18699 9.43802C3.00699 9.46802 2.79699 9.51802 2.58299 9.62802L3.49999 11.405C3.45499 11.428 3.43899 11.423 3.51799 11.41C3.66515 11.3889 3.81288 11.3719 3.96099 11.359L3.76199 9.36802ZM4.71199 9.27402C4.79499 9.21102 4.83199 9.23102 4.63599 9.26602C4.45099 9.29902 4.18899 9.32602 3.76199 9.36902L3.96099 11.359C4.35399 11.319 4.70899 11.285 4.99099 11.234C5.26199 11.185 5.61699 11.099 5.92499 10.864L4.71199 9.27402ZM4.71199 9.27402L5.92499 10.864C6.20566 10.6499 6.42464 10.3653 6.55971 10.0391C6.69477 9.71298 6.7411 9.35688 6.69399 9.00702L4.71199 9.27402ZM4.10699 8.53502C4.37899 8.86702 4.54499 9.07102 4.65299 9.22602C4.76599 9.38902 4.72599 9.37702 4.71199 9.27402L6.69399 9.00702C6.64199 8.62302 6.45299 8.31202 6.29499 8.08502C6.13199 7.85002 5.90499 7.57502 5.65499 7.26902L4.10699 8.53502ZM3.45699 7.51802C3.52999 7.74802 3.64299 7.93102 3.74899 8.08002C3.84899 8.22002 3.97799 8.37702 4.10699 8.53502L5.65499 7.26902C5.55942 7.15495 5.46705 7.03924 5.37799 6.92002C5.33099 6.85502 5.34699 6.86302 5.36199 6.91002L3.45699 7.51802ZM3.52699 6.11502C3.33478 6.55884 3.30991 7.05727 3.45699 7.51802L5.36199 6.91002L3.52699 6.11502ZM4.27499 5.16802C4.12999 5.31302 3.98699 5.45502 3.87299 5.58502C3.73026 5.7422 3.61346 5.92111 3.52699 6.11502L5.36199 6.91002C5.34199 6.95602 5.32599 6.96302 5.37899 6.90202C5.43899 6.83402 5.52599 6.74602 5.68899 6.58202L4.27499 5.16802ZM5.16899 4.27502L4.27499 5.16802L5.68899 6.58202L6.58399 5.68902L5.16899 4.27502ZM6.11499 3.52602C5.92101 3.6128 5.7421 3.72993 5.58499 3.87302C5.44205 4.00253 5.30331 4.1366 5.16899 4.27502L6.58399 5.68902C6.74699 5.52502 6.83499 5.43802 6.90299 5.37902C6.96299 5.32502 6.95599 5.34102 6.90999 5.36102L6.11499 3.52602ZM7.51899 3.45602C7.05794 3.30869 6.5591 3.33357 6.11499 3.52602L6.90999 5.36102L7.51899 3.45602ZM8.53399 4.10602C8.37599 3.97702 8.22099 3.84902 8.07999 3.74902C7.90973 3.6222 7.72036 3.52329 7.51899 3.45602L6.90999 5.36102C6.86299 5.34602 6.85399 5.33102 6.91999 5.37702C6.99299 5.43002 7.08999 5.50802 7.26899 5.65502L8.53399 4.10602ZM9.27399 4.71102C9.37699 4.72502 9.38899 4.76502 9.22599 4.65202C8.98991 4.47819 8.75978 4.29642 8.53599 4.10702L7.26899 5.65502C7.57499 5.90502 7.84899 6.13102 8.08399 6.29502C8.30999 6.45202 8.62199 6.64102 9.00599 6.69302L9.27399 4.71102ZM9.27399 4.71102L9.00699 6.69302C9.35694 6.74002 9.7131 6.69354 10.0393 6.55829C10.3654 6.42305 10.65 6.20387 10.864 5.92302L9.27399 4.71102ZM9.36899 3.76102C9.32599 4.18902 9.29899 4.45102 9.26599 4.63602C9.23099 4.83102 9.21099 4.79402 9.27399 4.71102L10.864 5.92302C11.099 5.61502 11.185 5.26102 11.234 4.99002C11.284 4.70902 11.32 4.35402 11.359 3.96002L9.36899 3.76102ZM9.62699 2.58302C9.53199 2.77299 9.46785 2.97688 9.43699 3.18702C9.40899 3.35702 9.38899 3.55802 9.36899 3.76202L11.359 3.96002C11.372 3.81196 11.3887 3.66525 11.409 3.51802C11.423 3.43802 11.428 3.45602 11.405 3.50002L9.62699 2.58302ZM10.67 1.64002C10.2196 1.81775 9.84906 2.15281 9.62699 2.58302L11.405 3.50002L10.67 1.64002ZM11.868 1.50002C11.664 1.50002 11.461 1.50002 11.289 1.51102C11.0768 1.52082 10.8675 1.56437 10.669 1.64002L11.406 3.50002C11.359 3.51802 11.343 3.51202 11.423 3.50702C11.513 3.50102 11.638 3.50002 11.869 3.50002L11.868 1.50002ZM13.132 1.50002H11.868V3.50002H13.132V1.50002ZM14.33 1.64002C14.1315 1.56437 13.9222 1.52082 13.71 1.51102C13.54 1.49902 13.337 1.50002 13.133 1.50002V3.50002C13.364 3.50002 13.489 3.50002 13.579 3.50702C13.659 3.51202 13.642 3.51802 13.595 3.50002L14.33 1.64002ZM15.373 2.58302C15.1509 2.15281 14.7803 1.81775 14.33 1.64002L13.595 3.50002L15.373 2.58302ZM15.5 12.5C15.5 13.2957 15.1839 14.0587 14.6213 14.6213C14.0587 15.1839 13.2956 15.5 12.5 15.5V17.5C13.8261 17.5 15.0978 16.9732 16.0355 16.0356C16.9732 15.0979 17.5 13.8261 17.5 12.5H15.5ZM12.5 9.50002C13.2956 9.50002 14.0587 9.81609 14.6213 10.3787C15.1839 10.9413 15.5 11.7044 15.5 12.5H17.5C17.5 11.1739 16.9732 9.90217 16.0355 8.96449C15.0978 8.0268 13.8261 7.50002 12.5 7.50002V9.50002ZM9.49999 12.5C9.49999 11.7044 9.81606 10.9413 10.3787 10.3787C10.9413 9.81609 11.7043 9.50002 12.5 9.50002V7.50002C11.1739 7.50002 9.90214 8.0268 8.96446 8.96449C8.02677 9.90217 7.49999 11.1739 7.49999 12.5H9.49999ZM12.5 15.5C11.7043 15.5 10.9413 15.1839 10.3787 14.6213C9.81606 14.0587 9.49999 13.2957 9.49999 12.5H7.49999C7.49999 13.8261 8.02677 15.0979 8.96446 16.0356C9.90214 16.9732 11.1739 17.5 12.5 17.5V15.5Z" fill="#777E99"/>
</svg>
